<?xml version="1.0" encoding="iso-8859-1"?>
<!-- Generator: Adobe Illustrator 19.0.0, SVG Export Plug-In . SVG Version: 6.00 Build 0)  -->
<svg version="1.1" id="Capa_1" xmlns="http://www.w3.org/2000/svg" xmlns:xlink="http://www.w3.org/1999/xlink" x="0px" y="0px"
	 viewBox="0 0 512 512" style="enable-background:new 0 0 512 512;" xml:space="preserve">
<g>
	<g>
		<path d="M125.314,69.664c-26.587,0-48.217,21.63-48.217,48.216c0,26.586,21.63,48.216,48.217,48.216
			c26.586,0,48.216-21.63,48.216-48.216S151.901,69.664,125.314,69.664z M125.314,135.997c-9.991,0-18.119-8.128-18.119-18.117
			s8.128-18.117,18.119-18.117c9.99,0,18.117,8.128,18.117,18.117S135.304,135.997,125.314,135.997z"/>
	</g>
</g>
<g>
	<g>
		<path d="M125.314,9.466c-59.78,0-108.415,48.635-108.415,108.414s48.635,108.414,108.415,108.414
			c59.779,0,108.414-48.635,108.414-108.414S185.094,9.466,125.314,9.466z M125.314,196.195c-43.184,0-78.316-35.132-78.316-78.315
			c0-43.183,35.132-78.315,78.316-78.315c43.183,0,78.315,35.132,78.315,78.315C203.63,161.063,168.497,196.195,125.314,196.195z"/>
	</g>
</g>
<g>
	<g>
		<path d="M300.466,0.216l70.487,70.488L0,451.574l60.212,60.211L433.67,133.419l78.33,78.33V0.216H300.466z M481.901,139.085
			L433.53,90.714L60.072,469.079l-17.785-17.784l370.955-380.87l-40.111-40.11h108.77V139.085z"/>
	</g>
</g>
<g>
	<g>
		<path d="M376.199,345.448c-26.586,0-48.216,21.63-48.216,48.216c0,26.586,21.63,48.216,48.216,48.216
			c26.587,0,48.217-21.63,48.217-48.216C424.416,367.078,402.786,345.448,376.199,345.448z M376.199,411.782
			c-9.99,0-18.117-8.128-18.117-18.117s8.128-18.117,18.117-18.117c9.991,0,18.118,8.128,18.118,18.117
			S386.19,411.782,376.199,411.782z"/>
	</g>
</g>
<g>
	<g>
		<path d="M376.199,285.251c-59.78,0-108.415,48.635-108.415,108.414s48.635,108.414,108.415,108.414
			c59.78,0,108.415-48.635,108.415-108.414S435.979,285.251,376.199,285.251z M376.199,471.98
			c-43.184,0-78.316-35.132-78.316-78.315s35.132-78.315,78.316-78.315c43.184,0,78.316,35.132,78.316,78.315
			C454.515,436.847,419.383,471.98,376.199,471.98z"/>
	</g>
</g>
<g>
</g>
<g>
</g>
<g>
</g>
<g>
</g>
<g>
</g>
<g>
</g>
<g>
</g>
<g>
</g>
<g>
</g>
<g>
</g>
<g>
</g>
<g>
</g>
<g>
</g>
<g>
</g>
<g>
</g>
</svg>
