<?xml version="1.0" encoding="iso-8859-1"?>
<!-- Generator: Adobe Illustrator 16.0.0, SVG Export Plug-In . SVG Version: 6.00 Build 0)  -->
<!DOCTYPE svg PUBLIC "-//W3C//DTD SVG 1.1//EN" "http://www.w3.org/Graphics/SVG/1.1/DTD/svg11.dtd">
<svg xmlns="http://www.w3.org/2000/svg" xmlns:xlink="http://www.w3.org/1999/xlink" version="1.1" id="Capa_1" x="0px" y="0px" width="512px" height="512px" viewBox="0 0 486.809 486.809" style="enable-background:new 0 0 486.809 486.809;" xml:space="preserve">
<g>
	<g>
		<g>
			<path d="M324.891,36.993c1.336-0.98,2.695-1.188,3.605-1.188c0.941,0,3.305,0.254,4.965,2.516l46.215,63.039h40.172     l-60.254-82.195c-12.086-16.479-37.324-20.406-53.867-8.289l-21.801,15.977l19.156,26.133L324.891,36.993z" fill="#FFFFFF"/>
			<path d="M213.466,37.007c1.336-0.98,2.703-1.203,3.613-1.203c0.941,0,3.305,0.254,4.965,2.516l46.215,63.039h40.173     l-60.255-82.195c-12.094-16.479-37.309-20.406-53.867-8.289L70.837,101.359h54.809L213.466,37.007z" fill="#FFFFFF"/>
			<path d="M261.434,308.376c0-39.656,32.263-71.926,71.918-71.926h121.707v-73.051c0-16.355-13.27-29.645-29.637-29.645H29.637     C13.27,133.753,0,147.042,0,163.398v289.954c0,16.375,13.27,29.645,29.637,29.645h395.785c16.367,0,29.637-13.27,29.637-29.645     v-73.052H333.352C293.695,380.301,261.434,348.032,261.434,308.376z" fill="#FFFFFF"/>
			<path d="M471.074,260.747H333.352c-26.297,0-47.62,21.324-47.62,47.63c0,26.309,21.323,47.629,47.62,47.629h137.724     c8.688,0,15.733-7.056,15.733-15.724v-63.797C486.809,267.801,479.762,260.747,471.074,260.747z" fill="#FFFFFF"/>
		</g>
	</g>
</g>
<g>
</g>
<g>
</g>
<g>
</g>
<g>
</g>
<g>
</g>
<g>
</g>
<g>
</g>
<g>
</g>
<g>
</g>
<g>
</g>
<g>
</g>
<g>
</g>
<g>
</g>
<g>
</g>
<g>
</g>
</svg>
