<?xml version="1.0" encoding="iso-8859-1"?>
<!-- Generator: Adobe Illustrator 19.1.0, SVG Export Plug-In . SVG Version: 6.00 Build 0)  -->
<svg version="1.1" id="Capa_1" xmlns="http://www.w3.org/2000/svg" xmlns:xlink="http://www.w3.org/1999/xlink" x="0px" y="0px"
	 viewBox="0 0 303.848 303.848" style="enable-background:new 0 0 303.848 303.848;" xml:space="preserve">
<g>
	<path d="M297.023,52.375l-3.74-8.728l-50.361,50.348h-33.503l0.026-33.49l49.943-50.039l-9.023-3.618
		c-10.129-4.055-20.739-6.105-31.543-6.105c-46.909,0-85.072,38.156-85.072,85.04c0,9.293,1.53,18.471,4.557,27.327L10.714,240.682
		C3.798,247.584,0,256.775,0,266.543s3.805,18.953,10.714,25.842c6.896,6.915,16.08,10.72,25.849,10.72s18.946-3.805,25.849-10.72
		L189.27,165.533c9.467,3.515,19.383,5.296,29.551,5.296c46.884,0,85.027-38.15,85.027-85.046
		C303.848,74.214,301.553,62.98,297.023,52.375z M218.821,157.975c-9.891,0-19.493-1.986-28.542-5.887l-4.004-1.735L53.323,283.298
		c-8.965,8.965-24.576,8.965-33.529,0c-4.48-4.467-6.947-10.431-6.947-16.755c0-6.337,2.468-12.288,6.947-16.768l133.492-133.472
		l-1.555-3.927c-3.406-8.573-5.135-17.526-5.135-26.594c0-39.801,32.404-72.186,72.218-72.186c5.81,0,11.575,0.701,17.198,2.095
		L196.584,55.19l-0.039,51.665h51.691l40.193-40.181c1.71,6.195,2.558,12.59,2.558,19.113
		C290.994,125.59,258.622,157.975,218.821,157.975z M46.061,265.689c0,5.135-4.165,9.3-9.3,9.3c-5.141,0-9.306-4.165-9.306-9.3
		c0-5.148,4.165-9.312,9.306-9.312C41.89,256.376,46.061,260.541,46.061,265.689z"/>
</g>
<g>
</g>
<g>
</g>
<g>
</g>
<g>
</g>
<g>
</g>
<g>
</g>
<g>
</g>
<g>
</g>
<g>
</g>
<g>
</g>
<g>
</g>
<g>
</g>
<g>
</g>
<g>
</g>
<g>
</g>
</svg>
